<?xml version="1.0" encoding="UTF-8"?>
<svg version="1.1" xmlns="http://www.w3.org/2000/svg" width="400" height="80">
<path d="M0 0 C1.72959961 -0.00386719 1.72959961 -0.00386719 3.49414062 -0.0078125 C5.30881836 0.00378906 5.30881836 0.00378906 7.16015625 0.015625 C8.36607422 0.00789063 9.57199219 0.00015625 10.81445312 -0.0078125 C11.96880859 -0.00523438 13.12316406 -0.00265625 14.3125 0 C15.37331787 0.00225586 16.43413574 0.00451172 17.52709961 0.00683594 C20.22265625 0.265625 20.22265625 0.265625 23.22265625 2.265625 C24.98439263 7.55083415 24.49218467 13.17124991 24.53515625 18.703125 C24.56416016 19.94384766 24.59316406 21.18457031 24.62304688 22.46289062 C24.63142578 23.65462891 24.63980469 24.84636719 24.6484375 26.07421875 C24.66302002 27.16532959 24.67760254 28.25644043 24.69262695 29.38061523 C24.22265625 32.265625 24.22265625 32.265625 22.5715332 34.6237793 C19.58770685 36.70944942 17.83588087 36.75475253 14.21484375 36.7265625 C12.48814453 36.72076172 12.48814453 36.72076172 10.7265625 36.71484375 C9.52902344 36.69035156 8.33148438 36.66585937 7.09765625 36.640625 C5.28974609 36.63869141 5.28974609 36.63869141 3.4453125 36.63671875 C-5.49657207 36.54639668 -5.49657207 36.54639668 -7.77734375 34.265625 C-8.03613281 31.1328125 -8.03613281 31.1328125 -8.04296875 27.140625 C-8.0448822 26.4379248 -8.04679565 25.73522461 -8.04876709 25.01123047 C-8.0501285 23.52506146 -8.04643507 22.03888055 -8.03808594 20.55273438 C-8.02738529 18.27446854 -8.03798214 15.99699123 -8.05078125 13.71875 C-8.04945965 12.27603992 -8.04689724 10.83333034 -8.04296875 9.390625 C-8.04071289 8.07320312 -8.03845703 6.75578125 -8.03613281 5.3984375 C-7.57165896 -0.22432519 -4.95748271 0.01055345 0 0 Z M1.22265625 7.265625 C1.22265625 14.525625 1.22265625 21.785625 1.22265625 29.265625 C5.84265625 29.265625 10.46265625 29.265625 15.22265625 29.265625 C15.22265625 26.625625 15.22265625 23.985625 15.22265625 21.265625 C11.26265625 21.265625 7.30265625 21.265625 3.22265625 21.265625 C3.55265625 19.285625 3.88265625 17.305625 4.22265625 15.265625 C9.66765625 14.770625 9.66765625 14.770625 15.22265625 14.265625 C15.22265625 11.955625 15.22265625 9.645625 15.22265625 7.265625 C10.60265625 7.265625 5.98265625 7.265625 1.22265625 7.265625 Z " fill="#1F1F1F" transform="translate(256.77734375,18.734375)"/>
<path d="M0 0 C2.97 0 5.94 0 9 0 C9 4.62 9 9.24 9 14 C13.62 14 18.24 14 23 14 C23 9.38 23 4.76 23 0 C25.64 0 28.28 0 31 0 C31 11.88 31 23.76 31 36 C28.36 36 25.72 36 23 36 C23 31.05 23 26.1 23 21 C18.38 21 13.76 21 9 21 C9 25.95 9 30.9 9 36 C6.03 36 3.06 36 0 36 C0 24.12 0 12.24 0 0 Z " fill="#2C2C2C" transform="translate(49,19)"/>
<path d="M0 0 C1.20205078 -0.02900391 2.40410156 -0.05800781 3.64257812 -0.08789062 C4.79822266 -0.09626953 5.95386719 -0.10464844 7.14453125 -0.11328125 C8.20647705 -0.12786377 9.26842285 -0.14244629 10.36254883 -0.1574707 C13.88816635 0.42906579 15.01659172 1.52816307 17.1875 4.3125 C18.80719096 9.17157289 18.76401544 12.958942 16.75 17.6875 C15.1875 20.3125 15.1875 20.3125 14.1875 21.3125 C12.77179877 21.39901611 11.351905 21.41954904 9.93359375 21.41015625 C9.07958984 21.40693359 8.22558594 21.40371094 7.34570312 21.40039062 C5.99895508 21.38782227 5.99895508 21.38782227 4.625 21.375 C3.72330078 21.37048828 2.82160156 21.36597656 1.89257812 21.36132812 C-0.34247589 21.34950244 -2.57749602 21.33156638 -4.8125 21.3125 C-4.8125 26.2625 -4.8125 31.2125 -4.8125 36.3125 C-10.96484375 36.41015625 -10.96484375 36.41015625 -12.8125 36.3125 C-14.40187556 34.72312444 -13.94231143 33.07350154 -13.9453125 30.875 C-13.94660156 29.98039062 -13.94789062 29.08578125 -13.94921875 28.1640625 C-13.94341797 26.75253906 -13.94341797 26.75253906 -13.9375 25.3125 C-13.94136719 24.37148438 -13.94523438 23.43046875 -13.94921875 22.4609375 C-13.94792969 21.56632812 -13.94664063 20.67171875 -13.9453125 19.75 C-13.94362061 18.51056641 -13.94362061 18.51056641 -13.94189453 17.24609375 C-13.8125 15.3125 -13.8125 15.3125 -12.8125 14.3125 C-11.25301458 14.15563751 -9.68707332 14.06173361 -8.12109375 13.99609375 C-6.70473633 13.93325195 -6.70473633 13.93325195 -5.25976562 13.86914062 C-4.26654297 13.82982422 -3.27332031 13.79050781 -2.25 13.75 C-0.75436523 13.68522461 -0.75436523 13.68522461 0.77148438 13.61914062 C3.2433415 13.51269702 5.7153031 13.41068072 8.1875 13.3125 C7.8575 11.6625 7.5275 10.0125 7.1875 8.3125 C6.33986084 8.32821045 6.33986084 8.32821045 5.47509766 8.34423828 C2.92094347 8.38574788 0.36686018 8.4118096 -2.1875 8.4375 C-3.07695312 8.45425781 -3.96640625 8.47101562 -4.8828125 8.48828125 C-5.73359375 8.49472656 -6.584375 8.50117188 -7.4609375 8.5078125 C-8.63922119 8.52352295 -8.63922119 8.52352295 -9.84130859 8.53955078 C-11.8125 8.3125 -11.8125 8.3125 -13.8125 6.3125 C-14 3.75 -14 3.75 -13.8125 1.3125 C-11.15702444 -1.34297556 -3.56997737 0.02843848 0 0 Z " fill="#1F1F1F" transform="translate(24.8125,18.6875)"/>
<path d="M0 0 C1.66675781 -0.00193359 1.66675781 -0.00193359 3.3671875 -0.00390625 C5.12289062 0.00189453 5.12289062 0.00189453 6.9140625 0.0078125 C8.07679688 0.00394531 9.23953125 0.00007813 10.4375 -0.00390625 C12.108125 -0.00197266 12.108125 -0.00197266 13.8125 0 C14.83778809 0.00112793 15.86307617 0.00225586 16.91943359 0.00341797 C19.5390625 0.1328125 19.5390625 0.1328125 22.5390625 1.1328125 C24.76656348 4.35114167 24.83715334 7.29037046 24.8515625 11.1328125 C24.87669922 12.6796875 24.87669922 12.6796875 24.90234375 14.2578125 C24.46872175 17.68948765 24.28242222 18.97511384 21.5390625 21.1328125 C18.29714297 21.62310159 15.12051304 21.50716175 11.8515625 21.3828125 C10.95888672 21.36476563 10.06621094 21.34671875 9.14648438 21.328125 C6.94355232 21.28100346 4.74117192 21.20925989 2.5390625 21.1328125 C2.5390625 26.0828125 2.5390625 31.0328125 2.5390625 36.1328125 C-3.61328125 36.23046875 -3.61328125 36.23046875 -5.4609375 36.1328125 C-7.05031306 34.54343694 -6.59074893 32.89381404 -6.59375 30.6953125 C-6.59503906 29.80070312 -6.59632813 28.90609375 -6.59765625 27.984375 C-6.59185547 26.57285156 -6.59185547 26.57285156 -6.5859375 25.1328125 C-6.58980469 24.19179688 -6.59367188 23.25078125 -6.59765625 22.28125 C-6.59636719 21.38664062 -6.59507812 20.49203125 -6.59375 19.5703125 C-6.59205811 18.33087891 -6.59205811 18.33087891 -6.59033203 17.06640625 C-6.4609375 15.1328125 -6.4609375 15.1328125 -5.4609375 14.1328125 C-3.89921005 14.04595647 -2.33364406 14.02579031 -0.76953125 14.03515625 C0.17470703 14.03837891 1.11894531 14.04160156 2.09179688 14.04492188 C3.08501953 14.05330078 4.07824219 14.06167969 5.1015625 14.0703125 C6.09865234 14.07482422 7.09574219 14.07933594 8.12304688 14.08398438 C10.59511099 14.09581243 13.06705768 14.11229401 15.5390625 14.1328125 C15.5817835 12.46669345 15.57970082 10.79898365 15.5390625 9.1328125 C13.95901897 7.55276897 12.2922107 7.93187488 10.1015625 7.8515625 C9.20695313 7.81417969 8.31234375 7.77679687 7.390625 7.73828125 C5.97910156 7.68607422 5.97910156 7.68607422 4.5390625 7.6328125 C2.68473055 7.56422762 0.83054442 7.49153437 -1.0234375 7.4140625 C-1.84972656 7.38376953 -2.67601562 7.35347656 -3.52734375 7.32226562 C-5.4609375 7.1328125 -5.4609375 7.1328125 -6.4609375 6.1328125 C-6.5859375 3.6328125 -6.5859375 3.6328125 -6.4609375 1.1328125 C-4.72494554 -0.60317946 -2.36032096 0.00260234 0 0 Z " fill="#232323" transform="translate(193.4609375,18.8671875)"/>
<path d="M0 0 C4.47915328 -0.02886338 8.95828291 -0.04675187 13.4375 -0.0625 C14.71689453 -0.07087891 15.99628906 -0.07925781 17.31445312 -0.08789062 C19.13686523 -0.09272461 19.13686523 -0.09272461 20.99609375 -0.09765625 C22.12200928 -0.10289307 23.2479248 -0.10812988 24.40795898 -0.11352539 C27 0 27 0 28 1 C28 2.98 28 4.96 28 7 C21.4 7.33 14.8 7.66 8 8 C8.33 9.32 8.66 10.64 9 12 C10.28777344 12.06058594 11.57554687 12.12117188 12.90234375 12.18359375 C14.58074159 12.26798247 16.25912636 12.3526313 17.9375 12.4375 C18.78763672 12.47681641 19.63777344 12.51613281 20.51367188 12.55664062 C21.72700195 12.61948242 21.72700195 12.61948242 22.96484375 12.68359375 C24.08814087 12.73858032 24.08814087 12.73858032 25.23413086 12.79467773 C27 13 27 13 28 14 C28.125 17.5 28.125 17.5 28 21 C25.58251806 23.41748194 19.49313326 22.28171076 16.25 22.3125 C15.24710937 22.34150391 14.24421875 22.37050781 13.2109375 22.40039062 C5.79596481 22.4643128 5.79596481 22.4643128 1.859375 20.16796875 C-1.33366058 16.4449966 -1.13557081 13.16793587 -1.125 8.4375 C-1.12757813 7.28121094 -1.13015625 6.12492187 -1.1328125 4.93359375 C-1 2 -1 2 0 0 Z " fill="#222222" transform="translate(289,33)"/>
<path d="M0 0 C6.15234375 -0.09765625 6.15234375 -0.09765625 8 0 C9.80394875 1.80394875 9.23705789 4.56677799 9.31640625 7.00390625 C9.37924805 8.82631836 9.37924805 8.82631836 9.44335938 10.68554688 C9.48267578 11.96494141 9.52199219 13.24433594 9.5625 14.5625 C9.60568359 15.84576172 9.64886719 17.12902344 9.69335938 18.45117188 C9.79984719 21.63397445 9.90046421 24.81697243 10 28 C15.94 28.33 21.88 28.66 28 29 C28 31.31 28 33.62 28 36 C24.4377769 36.11654436 20.87604658 36.1873639 17.3125 36.25 C16.30509766 36.28351562 15.29769531 36.31703125 14.25976562 36.3515625 C9.93167247 36.40869904 6.84170626 36.41391892 2.91796875 34.484375 C-1.95648173 28.17042284 -1.28317443 20.22859905 -1.1875 12.625 C-1.18685547 11.62855469 -1.18621094 10.63210937 -1.18554688 9.60546875 C-1.1408289 2.2816578 -1.1408289 2.2816578 0 0 Z " fill="#3A3A3A" transform="translate(359,19)"/>
<path d="M0 0 C2.05078125 0.03255208 4.1015625 0.06510417 6.15234375 0.09765625 C6.1773999 0.83927002 6.20245605 1.58088379 6.22827148 2.3449707 C6.34420507 5.70020953 6.4669436 9.05516569 6.58984375 12.41015625 C6.62916016 13.57740234 6.66847656 14.74464844 6.70898438 15.94726562 C6.77182617 17.6246582 6.77182617 17.6246582 6.8359375 19.3359375 C6.87259521 20.36759033 6.90925293 21.39924316 6.94702148 22.4621582 C7.05395617 25.20513883 7.05395617 25.20513883 8.15234375 28.09765625 C9.36792969 28.15824219 10.58351563 28.21882813 11.8359375 28.28125 C13.42058603 28.36563957 15.00522077 28.45028835 16.58984375 28.53515625 C17.39228516 28.57447266 18.19472656 28.61378906 19.02148438 28.65429688 C25.0390625 28.984375 25.0390625 28.984375 26.15234375 30.09765625 C26.27734375 32.59765625 26.27734375 32.59765625 26.15234375 35.09765625 C23.79466718 37.45533282 18.06486231 36.37865706 14.90234375 36.41015625 C13.46955078 36.45366211 13.46955078 36.45366211 12.0078125 36.49804688 C7.7334932 36.53668815 4.91474455 36.5091572 1.10546875 34.453125 C-2.47742979 30.13214936 -3.1004603 25.5660385 -3.078125 20.078125 C-3.07619141 18.97404297 -3.07425781 17.86996094 -3.07226562 16.73242188 C-3.05389648 15.02602539 -3.05389648 15.02602539 -3.03515625 13.28515625 C-3.03418945 11.54975586 -3.03418945 11.54975586 -3.03320312 9.77929688 C-2.98235462 0.15762974 -2.98235462 0.15762974 0 0 Z " fill="#2D2D2D" transform="translate(104.84765625,18.90234375)"/>
<path d="M0 0 C6.15234375 -0.09765625 6.15234375 -0.09765625 8 0 C9.73557433 1.73557433 9.21164975 4.13098108 9.28125 6.49609375 C9.31863281 7.61177734 9.35601562 8.72746094 9.39453125 9.87695312 C9.42933594 11.05193359 9.46414062 12.22691406 9.5 13.4375 C9.56869107 15.74882736 9.64140371 18.06003983 9.71875 20.37109375 C9.74904297 21.40161865 9.77933594 22.43214355 9.81054688 23.49389648 C9.84076615 25.9969638 9.84076615 25.9969638 11 28 C16.61 28.33 22.22 28.66 28 29 C28 31.31 28 33.62 28 36 C24.6043303 36.08745946 21.20895227 36.14054444 17.8125 36.1875 C16.37293945 36.22520508 16.37293945 36.22520508 14.90429688 36.26367188 C5.63682672 36.35987399 5.63682672 36.35987399 2 33 C0.00312049 29.04226828 -0.23549572 25.7867808 -0.1953125 21.38671875 C-0.18886719 20.13955078 -0.18242187 18.89238281 -0.17578125 17.60742188 C-0.15902344 16.31384766 -0.14226562 15.02027344 -0.125 13.6875 C-0.11597656 12.37458984 -0.10695312 11.06167969 -0.09765625 9.70898438 C-0.07411797 6.47247087 -0.0412352 3.23632851 0 0 Z " fill="#2F2F2F" transform="translate(137,19)"/>
<path d="M0 0 C2.64 0 5.28 0 8 0 C8.33 9.24 8.66 18.48 9 28 C14.5046882 27.96047851 14.5046882 27.96047851 20.00927734 27.90991211 C25.77777778 27.88888889 25.77777778 27.88888889 28 29 C28 31.31 28 33.62 28 36 C24.4377769 36.11654436 20.87604658 36.1873639 17.3125 36.25 C16.30509766 36.28351562 15.29769531 36.31703125 14.25976562 36.3515625 C6.7496251 36.45070627 6.7496251 36.45070627 2.85546875 34.109375 C-0.36837404 30.44437478 -0.11792572 28.06632116 -0.09765625 23.2421875 C-0.0962413 22.57913605 -0.09482635 21.91608459 -0.09336853 21.23294067 C-0.08776754 19.11358137 -0.075215 16.99432741 -0.0625 14.875 C-0.05748512 13.43880361 -0.05292219 12.00260556 -0.04882812 10.56640625 C-0.03779782 7.04423655 -0.02053259 3.52212855 0 0 Z " fill="#141414" transform="translate(324,19)"/>
<path d="M0 0 C2.64 0 5.28 0 8 0 C8 11.88 8 23.76 8 36 C5.36 36 2.72 36 0 36 C-1.7329298 34.2670702 -1.12820046 32.03785664 -1.13894653 29.72851562 C-1.1369223 28.99310547 -1.13489807 28.25769531 -1.1328125 27.5 C-1.13376923 26.74912109 -1.13472595 25.99824219 -1.13571167 25.22460938 C-1.13639338 23.63411373 -1.13453972 22.04361533 -1.13037109 20.453125 C-1.12502267 18.01035345 -1.13031634 15.56776579 -1.13671875 13.125 C-1.13605797 11.58333293 -1.1347768 10.04166597 -1.1328125 8.5 C-1.13483673 7.76458984 -1.13686096 7.02917969 -1.13894653 6.27148438 C-1.11495161 1.11495161 -1.11495161 1.11495161 0 0 Z " fill="#454545" transform="translate(88,19)"/>
<path d="M0 0 C2.64 0 5.28 0 8 0 C8 11.88 8 23.76 8 36 C5.36 36 2.72 36 0 36 C0 24.12 0 12.24 0 0 Z " fill="#2C2C2C" transform="translate(172,19)"/>
<path d="M0 0 C9.57 0 19.14 0 29 0 C29 2.31 29 4.62 29 7 C19.43 7 9.86 7 0 7 C0 4.69 0 2.38 0 0 Z " fill="#181818" transform="translate(288,19)"/>
<path d="M0 0 C0.66 0.33 1.32 0.66 2 1 C1.67 1.66 1.34 2.32 1 3 C0.90211733 5.30042747 0.86922357 7.60374193 0.8671875 9.90625 C0.86623077 10.58675415 0.86527405 11.2672583 0.86428833 11.96838379 C0.86360769 13.40747164 0.86545393 14.84656257 0.86962891 16.28564453 C0.87497885 18.49128093 0.86968009 20.6967137 0.86328125 22.90234375 C0.86394205 24.29947962 0.86522326 25.69661536 0.8671875 27.09375 C0.86831543 28.36927734 0.86944336 29.64480469 0.87060547 30.95898438 C0.78897401 33.91860306 0.78897401 33.91860306 2 36 C0.68 35.34 -0.64 34.68 -2 34 C-2.049377 29.47934572 -2.08570823 24.95884783 -2.10986328 20.43798828 C-2.11993118 18.89954902 -2.13358646 17.36112893 -2.15087891 15.82275391 C-2.17509317 13.61355867 -2.18647491 11.40461605 -2.1953125 9.1953125 C-2.20563507 8.50567413 -2.21595764 7.81603577 -2.22659302 7.10549927 C-2.22699478 5.40199094 -2.12191026 3.69914057 -2 2 C-1.34 1.34 -0.68 0.68 0 0 Z " fill="#989898" transform="translate(251,19)"/>
<path d="M0 0 C0.33 0 0.66 0 1 0 C1.01458252 0.71542969 1.02916504 1.43085938 1.04418945 2.16796875 C1.11919213 5.44582436 1.21567955 8.72271917 1.3125 12 C1.34633789 13.68802734 1.34633789 13.68802734 1.38085938 15.41015625 C1.58962722 21.90093846 2.09935961 27.14293768 5 33 C7.53044606 34.58377402 7.53044606 34.58377402 10 35 C8.3125 35.75 8.3125 35.75 6 36 C3.35301155 34.21482174 1.43989377 32.87978754 0 30 C-0.08573394 27.74879258 -0.10712188 25.49500697 -0.09765625 23.2421875 C-0.0962413 22.57913605 -0.09482635 21.91608459 -0.09336853 21.23294067 C-0.08776754 19.11358137 -0.075215 16.99432741 -0.0625 14.875 C-0.05748512 13.43880361 -0.05292219 12.00260556 -0.04882812 10.56640625 C-0.03779782 7.04423655 -0.02053259 3.52212855 0 0 Z " fill="#9D9D9D" transform="translate(324,19)"/>
<path d="M0 0 C3 1 3 1 4.1875 3.125 C5.54960165 7.9447443 5.47682636 11.64480928 3.8125 16.375 C2 19 2 19 -0.6875 19.875 C-1.450625 19.91625 -2.21375 19.9575 -3 20 C-2.34644531 19.66097656 -1.69289062 19.32195313 -1.01953125 18.97265625 C1.36407435 17.05601608 1.36407435 17.05601608 1.42578125 13.49609375 C1.40855043 12.14281199 1.37006622 10.78966662 1.3125 9.4375 C1.29799805 8.40979492 1.29799805 8.40979492 1.28320312 7.36132812 C1.2271177 3.55256194 1.2271177 3.55256194 0 0 Z " fill="#939393" transform="translate(38,20)"/>
<path d="M0 0 C2.81256281 -0.02684312 5.62487241 -0.04676188 8.4375 -0.0625 C9.23994141 -0.07087891 10.04238281 -0.07925781 10.86914062 -0.08789062 C12.91295221 -0.0965143 14.95683902 -0.0522815 17 0 C18 1 18 1 18.0625 3.5625 C18.041875 4.366875 18.02125 5.17125 18 6 C17.01 6.33 16.02 6.66 15 7 C15 5.02 15 3.04 15 1 C10.05 1 5.1 1 0 1 C0 0.67 0 0.34 0 0 Z " fill="#525252" transform="translate(113,48)"/>
</svg>
